<?xml version="1.0" encoding="utf-8"?>
<!-- Generator: Adobe Illustrator 21.0.0, SVG Export Plug-In . SVG Version: 6.00 Build 0)  -->
<svg version="1.1" id="Layer_1" xmlns="http://www.w3.org/2000/svg" xmlns:xlink="http://www.w3.org/1999/xlink" x="0px" y="0px"
	 viewBox="0 0 142.3 30" style="enable-background:new 0 0 142.3 30;" xml:space="preserve">
<style type="text/css">
	.st0{fill:#010202;}
</style>
<g>
	<path class="st0" d="M7.8,21.8V23H0v-1.3l2.4-0.5c0.2,0,0.4-0.1,0.4-0.2c0.1-0.1,0.1-0.2,0.1-0.5l0-18c0-0.2,0-0.4-0.1-0.4
		C2.8,2.1,2.6,2.1,2.4,2L0,1.7V0.4h8.3l5.4,13.2l1.2,3.4l6.5-16.5h8.3v1.3L27.3,2c-0.2,0-0.4,0.1-0.4,0.2c-0.1,0.1-0.1,0.2-0.1,0.4
		v18.2c0,0.2,0,0.4,0.1,0.4c0.1,0.1,0.2,0.1,0.4,0.2l2.4,0.3V23H19.1v-1.3l2.4-0.3c0.2,0,0.4-0.1,0.4-0.1c0.1-0.1,0.1-0.2,0.1-0.5
		V3.1l-7.4,18.8h-2.4l-6.2-15L4.8,3.2l0,17.4c0,0.2,0,0.4,0.1,0.5c0.1,0.1,0.2,0.1,0.4,0.2L7.8,21.8z"/>
	<path class="st0" d="M36.7,23.5c-1.2,0-2.2-0.2-3.1-0.6c-0.9-0.4-1.8-0.9-2.4-1.6c-0.7-0.7-1.2-1.5-1.6-2.5c-0.4-1-0.6-2.1-0.6-3.2
		c0-1.2,0.2-2.2,0.6-3.2c0.4-1,0.9-1.8,1.6-2.5c0.7-0.7,1.5-1.2,2.5-1.6c1-0.4,2-0.6,3.2-0.6S39,7.8,40,8.2c1,0.4,1.8,0.9,2.4,1.6
		c0.7,0.7,1.2,1.5,1.6,2.5c0.4,1,0.6,2,0.6,3.2c0,1.2-0.2,2.2-0.6,3.2c-0.4,1-0.9,1.8-1.6,2.5c-0.7,0.7-1.5,1.3-2.5,1.6
		C38.9,23.3,37.9,23.5,36.7,23.5z M36.7,9c-1,0-1.7,0.6-2.3,1.7c-0.6,1.1-0.8,2.7-0.8,4.6c0,2.1,0.3,3.7,0.8,4.9
		c0.5,1.2,1.3,1.7,2.3,1.7c1,0,1.8-0.6,2.3-1.8c0.5-1.2,0.8-2.8,0.8-4.9c0-1.9-0.3-3.5-0.8-4.6C38.5,9.6,37.8,9,36.7,9z"/>
	<path class="st0" d="M55.2,7.7c0.9,0,1.6,0.3,2.2,0.8c0.6,0.6,0.8,1.3,0.8,2.2c0,0.8-0.2,1.5-0.7,2c-0.5,0.5-1.1,0.8-1.8,0.8
		c-0.4,0-0.7-0.1-1.1-0.2c-0.3-0.1-0.6-0.3-0.9-0.5l0.3-3.2c0,0-0.1,0-0.2,0c-0.4,0-0.9,0.2-1.3,0.7c-0.4,0.4-0.8,1-1.1,1.8
		c-0.3,0.7-0.6,1.6-0.8,2.6c-0.2,1-0.3,2-0.3,3.1v3.9l2.9,0.3V23h-9.4v-1.2l1.7-0.2c0.2,0,0.4-0.1,0.4-0.1c0.1-0.1,0.1-0.2,0.1-0.5
		V10.3c0-0.2,0-0.4-0.1-0.5c-0.1-0.1-0.2-0.1-0.4-0.1L44,9.5V8.4l5.8-0.6l0.4,0.3l-0.4,6.6c0.4-2.4,1.1-4.2,1.9-5.3
		C52.5,8.3,53.7,7.7,55.2,7.7z"/>
	<path class="st0" d="M66,23.5c-1.2,0-2.2-0.2-3.1-0.6c-0.9-0.4-1.7-0.9-2.3-1.6c-0.7-0.7-1.2-1.5-1.5-2.5c-0.4-1-0.5-2.1-0.5-3.3
		c0-1.1,0.2-2.2,0.6-3.2c0.4-1,0.9-1.8,1.6-2.5c0.7-0.7,1.5-1.3,2.5-1.6c1-0.4,2-0.6,3.2-0.6c1.9,0,3.4,0.6,4.5,1.7
		c1.1,1.1,1.6,2.8,1.6,4.8c0,0.3,0,0.6-0.1,0.8l-0.3,0.3H63v0.1c0,1.8,0.4,3.2,1.2,4.2c0.8,1,1.8,1.5,3.2,1.5c0.9,0,1.7-0.2,2.4-0.7
		c0.7-0.4,1.4-1.1,1.9-1.9l0.9,0.6c-0.3,0.6-0.7,1.2-1.2,1.7c-0.5,0.5-1,1-1.6,1.3c-0.6,0.4-1.2,0.7-1.9,0.9
		C67.3,23.3,66.7,23.5,66,23.5z M68.1,14c0-0.1,0-0.2,0-0.4c0-0.1,0-0.3,0-0.4c0-2.7-0.7-4.1-2.1-4.1c-0.8,0-1.5,0.5-2,1.4
		c-0.5,0.9-0.9,2.1-1,3.7L68.1,14z"/>
	<path class="st0" d="M90.9,16.3c0,1.1-0.2,2.1-0.6,3c-0.4,0.9-1,1.6-1.7,2.3c-0.7,0.6-1.6,1.1-2.6,1.5c-1,0.3-2.1,0.5-3.3,0.5
		c-1.3,0-2.5-0.2-3.4-0.5c-0.9-0.4-1.8-0.9-2.6-1.6l-1.2,2h-1.3l-0.3-8.2h1.3c0.6,2.2,1.5,3.9,2.7,5c1.2,1.1,2.5,1.7,4.1,1.7
		c1.3,0,2.3-0.4,3.1-1.1c0.8-0.7,1.2-1.7,1.2-2.9c0-1-0.3-1.7-0.9-2.4c-0.6-0.6-1.5-1.2-2.8-1.6l-3.4-1.2c-1.6-0.6-2.8-1.4-3.6-2.5
		c-0.9-1.1-1.3-2.3-1.3-3.6c0-1,0.2-1.9,0.5-2.7c0.4-0.8,0.9-1.5,1.5-2.1c0.7-0.6,1.4-1,2.4-1.3C79.7,0.2,80.7,0,81.9,0
		C83,0,84.1,0.2,85,0.5c0.9,0.3,1.7,0.8,2.4,1.5l1.1-1.9h1.2L90,7.9h-1.3c-0.6-2.2-1.4-3.7-2.4-4.7c-1-1-2.3-1.5-3.8-1.5
		c-1.2,0-2.2,0.3-3,0.9c-0.8,0.6-1.1,1.4-1.1,2.5c0,0.8,0.3,1.5,0.8,2c0.5,0.6,1.4,1,2.5,1.5l3.2,1.2C88.9,11.2,90.9,13.4,90.9,16.3
		z"/>
	<path class="st0" d="M100.1,23.5c-1.1,0-2.2-0.2-3.1-0.6c-0.9-0.4-1.8-0.9-2.4-1.6c-0.7-0.7-1.2-1.5-1.6-2.5
		c-0.4-1-0.6-2.1-0.6-3.2c0-1.2,0.2-2.2,0.6-3.2c0.4-1,0.9-1.8,1.6-2.5C95.2,9.1,96,8.6,97,8.2c1-0.4,2-0.6,3.2-0.6
		c1.1,0,2.2,0.2,3.2,0.6c1,0.4,1.8,0.9,2.4,1.6c0.7,0.7,1.2,1.5,1.6,2.5c0.4,1,0.6,2,0.6,3.2c0,1.2-0.2,2.2-0.6,3.2
		c-0.4,1-0.9,1.8-1.6,2.5c-0.7,0.7-1.5,1.3-2.5,1.6C102.3,23.3,101.2,23.5,100.1,23.5z M100.1,9c-1,0-1.7,0.6-2.3,1.7
		c-0.6,1.1-0.8,2.7-0.8,4.6c0,2.1,0.3,3.7,0.8,4.9c0.5,1.2,1.3,1.7,2.3,1.7c1,0,1.8-0.6,2.3-1.8c0.5-1.2,0.8-2.8,0.8-4.9
		c0-1.9-0.3-3.5-0.8-4.6C101.9,9.6,101.1,9,100.1,9z"/>
	<path class="st0" d="M119.4,23l0.3-4.2c-0.1,0.6-0.4,1.1-0.6,1.7c-0.3,0.6-0.6,1.1-1.1,1.5c-0.4,0.4-0.9,0.8-1.5,1
		c-0.6,0.3-1.2,0.4-2,0.4c-1.5,0-2.7-0.5-3.5-1.4c-0.8-0.9-1.2-2.3-1.2-4.2v-7.5c0-0.2,0-0.4-0.1-0.4c-0.1-0.1-0.2-0.1-0.4-0.2
		l-1.6-0.2V8.4l6.1-0.6l0.4,0.3l-0.2,2.6v6.5c0,1.4,0.2,2.4,0.5,3c0.3,0.6,0.9,0.9,1.6,0.9c0.9,0,1.7-0.5,2.2-1.6
		c0.5-1.1,0.8-2.6,0.8-4.4v-4.6c0-0.2,0-0.4-0.1-0.4c-0.1-0.1-0.2-0.1-0.4-0.2l-1.8-0.2V8.4l6.3-0.6l0.4,0.3l-0.2,2.6v10.7l2.3,0.3
		v1.1l-5.8,0.5L119.4,23z"/>
	<path class="st0" d="M131.2,8.1l-0.3,4.3c0.2-1.4,0.8-2.6,1.8-3.4c0.9-0.8,2.1-1.3,3.5-1.3c0.9,0,1.8,0.2,2.5,0.6
		c0.7,0.4,1.4,0.9,1.9,1.6c0.5,0.7,0.9,1.5,1.2,2.5c0.3,1,0.4,2.1,0.4,3.3c0,1.1-0.2,2.1-0.5,3.1c-0.3,0.9-0.7,1.8-1.3,2.5
		c-0.6,0.7-1.2,1.3-2,1.6c-0.8,0.4-1.7,0.6-2.7,0.6c-2.2,0-3.7-0.9-4.5-2.8l0.2,2.6v5.3l2.6,0.3V30H125v-1.2l1.7-0.2
		c0.2,0,0.4-0.1,0.4-0.1c0.1-0.1,0.1-0.2,0.1-0.5V10.3c0-0.2,0-0.4-0.1-0.5c-0.1-0.1-0.2-0.1-0.4-0.1L125,9.5V8.4l5.8-0.6L131.2,8.1
		z M131.4,15.6c0,0.7,0.1,1.4,0.2,2.1c0.1,0.7,0.3,1.3,0.5,1.9c0.2,0.6,0.6,1,1,1.3c0.4,0.3,0.9,0.5,1.5,0.5c1,0,1.7-0.5,2.2-1.6
		c0.5-1,0.8-2.5,0.8-4.3c0-1.7-0.3-3.1-0.8-4.2c-0.5-1-1.2-1.6-2.2-1.6c-0.5,0-0.9,0.1-1.3,0.4c-0.4,0.3-0.7,0.7-1,1.2
		c-0.3,0.5-0.5,1.1-0.7,1.8C131.5,14,131.4,14.8,131.4,15.6z"/>
</g>
</svg>
